<svg width="109" height="22" viewBox="0 0 109 22" fill="none" xmlns="http://www.w3.org/2000/svg">
<path d="M109.001 0.0976562V2.73197H103.046V21.0526H100.399V2.73197H94.4727V0.0976562H109.001Z" fill="#484848"></path>
<path d="M83.2539 0.0976562H85.9297V21.0526H83.2539V0.0976562Z" fill="#484848"></path>
<path d="M71.2013 10.1858C72.1218 10.645 72.8555 11.3037 73.4021 12.1618C73.9486 13.0199 74.2222 14.0077 74.2222 15.1253C74.2222 16.8018 73.6562 18.2087 72.5246 19.3465C71.393 20.4839 70.0121 21.0526 68.3818 21.0526H59.6934V0.0976562H67.7488C69.3218 0.0976562 70.6548 0.646487 71.7479 1.74415C72.8409 2.84181 73.3878 4.19889 73.3878 5.81539C73.3878 7.67144 72.659 9.12825 71.2013 10.1858ZM68.3818 18.4482C69.2832 18.4482 70.0409 18.1191 70.6548 17.4604C71.2683 16.8018 71.5753 15.9935 71.5753 15.0357C71.5753 14.0977 71.2635 13.2992 70.6402 12.6405C70.0169 11.9822 69.2641 11.6527 68.3818 11.6527H62.3691V18.4482H68.3818ZM67.7488 2.70198H62.3691V9.10837H67.7488C68.5929 9.10837 69.3027 8.79873 69.878 8.18017C70.4534 7.5616 70.7409 6.80321 70.7409 5.90535C70.7409 5.02701 70.4485 4.27368 69.8634 3.645C69.2783 3.01632 68.5738 2.70198 67.7488 2.70198Z" fill="#484848"></path>
<path d="M48.1896 21.0526L43.6728 13.03H38.9258V21.0526H36.25V0.0976562H44.3054C46.0315 0.0976562 47.5086 0.731394 48.7361 1.99851C49.9636 3.26599 50.5775 4.79758 50.5775 6.59365C50.5775 7.95073 50.1889 9.18822 49.4122 10.3058C48.6354 11.4233 47.6333 12.2117 46.4058 12.6705L51.1528 21.0526H48.1896ZM38.9258 2.70198V10.5153H44.3054C45.303 10.5153 46.1517 10.1309 46.8517 9.36274C47.5517 8.59423 47.9017 7.67144 47.9017 6.59365C47.9017 5.51623 47.5517 4.59814 46.8517 3.83975C46.1517 3.08136 45.303 2.70198 44.3054 2.70198H38.9258Z" fill="#484848"></path>
<path d="M16.7181 19.1795C18.8779 19.1795 20.8335 18.2687 22.2488 16.796C23.1499 15.8584 23.8322 14.6924 24.209 13.3892C25.2784 12.9068 26.2816 12.4118 27.2018 11.9132C26.9986 14.5869 25.8726 16.9907 24.1544 18.7785C22.2509 20.7588 19.6217 21.9837 16.7181 21.9837C13.8139 21.9837 11.185 20.7588 9.28181 18.7785C9.04118 18.5285 8.81236 18.2661 8.59603 17.9926C9.62766 17.8571 10.7249 17.6685 11.8694 17.4275C13.2021 18.5245 14.8865 19.1795 16.7181 19.1795ZM23.8315 7.65193C23.4412 6.76636 22.9027 5.9657 22.2488 5.28535C20.8335 3.81301 18.8779 2.90178 16.7181 2.90178C14.558 2.90178 12.6024 3.81301 11.1871 5.28535C9.77176 6.75805 8.89639 8.79295 8.89639 11.0407C8.89639 11.5599 8.94291 12.0679 9.0325 12.56C8.34394 12.6752 7.69462 12.7637 7.09078 12.8248C6.83487 12.8508 6.58799 12.8721 6.35083 12.8884C6.25256 12.2879 6.20117 11.6704 6.20117 11.0407C6.20117 8.01902 7.37864 5.28318 9.28181 3.30284C11.185 1.3225 13.8139 0.0976562 16.7181 0.0976562C19.6217 0.0976562 22.2509 1.3225 24.1544 3.30284C24.9913 4.1736 25.6878 5.19069 26.2055 6.314L25.8823 6.50658H25.8764L25.6927 6.61605L25.6868 6.6222C25.1222 6.96327 24.5013 7.3076 23.8315 7.65193Z" fill="#484848"></path>
<path d="M25.1064 2.12815C26.8901 1.94786 28.4152 1.95689 29.5708 2.16103C31.0465 2.42117 32.0403 3.00975 32.4094 3.93759C32.4754 4.10488 32.5198 4.28409 32.5389 4.47486L32.5393 4.47956C32.6903 6.0285 30.8951 7.93369 27.87 9.75939C25.1429 11.4066 21.332 13.0979 17.0881 14.4412C13.5009 15.5765 10.1498 16.2908 7.44899 16.5643C5.66352 16.745 4.13674 16.7363 2.97977 16.5325C1.5023 16.2727 0.508173 15.6838 0.138371 14.7552C0.0717025 14.5869 0.0282985 14.4076 0.00920077 14.2183C-0.0779544 13.3429 0.45713 12.3536 1.48459 11.3293C2.27628 10.5398 3.36068 9.72904 4.67843 8.93307C4.17807 9.39121 3.27075 10.594 2.78636 11.7553C2.28218 12.9638 2.23461 14.128 3.57701 14.3632C4.47877 14.5222 5.72811 14.5233 7.23127 14.3708C9.73343 14.1175 12.8738 13.4448 16.2704 12.3695C20.299 11.0944 23.8894 9.50502 26.4356 7.96729C27.1707 7.5236 29.8687 6.01693 29.9621 4.70646C30.0513 2.41684 25.1818 2.14911 25.1064 2.12815Z" fill="#00C698"></path>
</svg>
